# xmcd
#
# Track frame offsets:
#	150
#	13103
#	24234
#	36544
#	46201
#	56109
#	68190
#	78104
#	89920
#	103741
#	117264
#	127827
#	144810
#	159446
#	171719
#	181664
#	198157
#	211482
#	230089
#	246562
#
# Disc length: 3533 seconds
#
# Revision: 1
# Processed by: cddbd v1.5.2PL0 Copyright (c) Steve Scherf et al.
# Submitted via: audiograbber 1.83.01
#
DISCID=1b0dcb14
DTITLE=George Jones - 40 Years Of Duets
DYEAR=2007
DGENRE=Country
TTITLE0=Yearning ( and Jeanette Hicks)
TTITLE1=Flame In My Heart (& Virginia Spurlock)
TTITLE2=Waltz Of The Angels (& Margie Singleton)
TTITLE3=Rollin' In My Sweet Baby's Arms (& Melba Montgomery)
TTITLE4=Let's Invite Them Over (& Melba Montgomery)
TTITLE5=We Must Have Been Out Of Our Minds (& Melba Montgomery)
TTITLE6=I've Got Five Dollars And It's Saturday Night (& Gene Pitney)
TTITLE7=Milwaukee, Here I Come (& Brenda Carter)
TTITLE8=Golden Ring (& Tammy Wynette)
TTITLE9=We're Gonna Hold On (& Tammy Wynette)
TTITLE10=Maybellene (& Johnny Paycheck)
TTITLE11=Bartender's Blues (& James Taylor)
TTITLE12=Yesterday's Wine (& Merle Haggard)
TTITLE13=Two Story House (& Tammy Wynette)
TTITLE14=We Didn't See A Thing (& Ray Charles and Chet Atkins)
TTITLE15=A Few Ole Country Boys (& Randy Travis)
TTITLE16=Size Seven Round (Made Of Gold) (& Lacy J Dalton)
TTITLE17=You Don't Seem To Miss Me (& Patty Loveless)
TTITLE18=A Good Year For The Roses (& Alan Jackson)
TTITLE19=One (& Tammy Wynette)
EXTD=
EXTT0=
EXTT1=
EXTT2=
EXTT3=
EXTT4=
EXTT5=
EXTT6=
EXTT7=
EXTT8=
EXTT9=
EXTT10=
EXTT11=
EXTT12=
EXTT13=
EXTT14=
EXTT15=
EXTT16=
EXTT17=
EXTT18=
EXTT19=
PLAYORDER=
